<mxfile host="Electron" agent="Mozilla/5.0 (X11; Linux x86_64) AppleWebKit/537.36 (KHTML, like Gecko) draw.io/26.1.1 Chrome/132.0.6834.210 Electron/34.5.0 Safari/537.36" version="26.1.1">
  <diagram name="商品状态图" id="0">
    <mxGraphModel dx="797" dy="418" grid="1" gridSize="10" guides="1" tooltips="1" connect="1" arrows="1" fold="1" page="1" pageScale="1" pageWidth="827" pageHeight="1169" math="0" shadow="0">
      <root>
        <mxCell id="0" />
        <mxCell id="1" parent="0" />
        <mxCell id="start" style="shape=umlState;verticalLabelPosition=bottom;verticalAlign=top;fillColor=#000000;strokeColor=#000000;shape=ellipse;aspect=fixed;perimeter=ellipsePerimeter" parent="1" vertex="1">
          <mxGeometry x="80" y="80" width="20" height="20" as="geometry" />
        </mxCell>
        <mxCell id="available" value="available(在售)" style="shape=umlState;fillColor=#FFFFFF;strokeColor=#000000;" parent="1" vertex="1">
          <mxGeometry x="200" y="60" width="120" height="60" as="geometry" />
        </mxCell>
        <mxCell id="sold" value="sold(已售出)" style="shape=umlState;fillColor=#FFFFFF;strokeColor=#000000;" parent="1" vertex="1">
          <mxGeometry x="400" y="60" width="120" height="60" as="geometry" />
        </mxCell>
        <mxCell id="deleted" value="deleted(已删除)" style="shape=umlState;fillColor=#FFFFFF;strokeColor=#000000;" parent="1" vertex="1">
          <mxGeometry x="200" y="200" width="120" height="60" as="geometry" />
        </mxCell>
        <mxCell id="start_to_available" style="endArrow=blockThin;endFill=1;" parent="1" source="start" target="available" edge="1">
          <mxGeometry relative="1" as="geometry" />
        </mxCell>
        <mxCell id="available_to_sold" value="订单完成" style="endArrow=blockThin;endFill=1;" parent="1" source="available" target="sold" edge="1">
          <mxGeometry relative="1" as="geometry">
            <mxPoint as="offset" />
          </mxGeometry>
        </mxCell>
        <mxCell id="available_to_deleted" value="卖家删除" style="endArrow=blockThin;endFill=1;" parent="1" source="available" target="deleted" edge="1">
          <mxGeometry relative="1" as="geometry" />
        </mxCell>
        <mxCell id="sold_to_deleted" value="卖家删除" style="endArrow=blockThin;endFill=1;" parent="1" source="sold" target="deleted" edge="1">
          <mxGeometry relative="1" as="geometry" />
        </mxCell>
      </root>
    </mxGraphModel>
  </diagram>
</mxfile>
